<?xml version="1.0" standalone="no"?>
<!DOCTYPE svg PUBLIC "-//W3C//DTD SVG 20010904//EN"
 "http://www.w3.org/TR/2001/REC-SVG-20010904/DTD/svg10.dtd">
<svg version="1.0" xmlns="http://www.w3.org/2000/svg"
 width="687.000000pt" height="687.000000pt" viewBox="0 0 687.000000 687.000000"
 preserveAspectRatio="xMidYMid meet">

<g transform="translate(0.000000,687.000000) scale(0.100000,-0.100000)"
fill="#000000" stroke="none">
<path d="M2719 5871 l-29 -29 0 -579 c0 -318 4 -583 8 -588 9 -13 274 -145
290 -145 7 0 12 7 12 15 0 8 -4 15 -8 15 -15 0 -35 120 -34 204 0 49 7 104 17
131 21 65 66 155 77 155 4 0 8 5 8 11 0 39 200 179 256 179 11 0 25 5 31 11
23 23 306 -3 333 -31 3 -3 21 -13 40 -23 84 -42 220 -200 220 -255 0 -11 4
-22 10 -24 16 -5 29 -167 20 -250 -8 -69 -14 -89 -42 -138 -20 -35 -27 -61
-22 -75 8 -20 30 -19 52 3 9 9 38 33 62 52 25 19 47 37 50 40 3 3 26 21 52 40
27 19 50 44 53 55 3 11 4 287 3 613 l-3 594 -30 24 -30 24 -683 0 -684 0 -29
-29z"/>
<path d="M4920 5570 c0 -33 -4 -68 -9 -78 -6 -9 -17 -52 -27 -95 -9 -43 -21
-80 -26 -83 -4 -3 -8 -14 -8 -24 0 -10 -7 -31 -15 -47 -8 -15 -28 -59 -46 -96
-17 -38 -47 -91 -65 -119 -19 -27 -34 -53 -34 -57 0 -3 -11 -18 -23 -32 -13
-13 -26 -30 -28 -37 -6 -18 -95 -116 -190 -211 -85 -85 -262 -251 -278 -261
-61 -38 -420 -392 -507 -500 -37 -47 -72 -86 -76 -88 -4 -2 -8 -10 -8 -17 0
-7 -3 -15 -7 -17 -10 -4 -73 -94 -73 -103 0 -3 -10 -21 -23 -38 -13 -18 -32
-50 -43 -72 -10 -22 -21 -42 -24 -45 -10 -9 -70 -152 -70 -166 0 -8 -4 -14
-10 -14 -5 0 -10 -7 -10 -16 0 -17 -27 -107 -40 -134 -4 -9 -11 -40 -15 -70
-4 -30 -11 -59 -15 -65 -22 -28 -31 -379 -13 -520 13 -98 36 -220 59 -300 9
-33 20 -73 24 -90 16 -64 83 -250 91 -253 5 -2 9 -13 9 -24 0 -11 6 -32 14
-46 24 -46 66 -142 66 -152 0 -6 7 -10 15 -10 10 0 15 10 15 33 0 32 8 102 36
302 17 120 17 125 40 235 9 41 18 89 21 105 2 17 8 39 12 50 8 19 16 48 57
190 9 33 20 64 25 69 5 6 9 18 9 27 0 17 20 68 76 187 19 40 34 77 34 82 0 6
5 10 10 10 6 0 10 5 10 12 0 12 107 189 120 198 4 3 10 15 14 28 4 12 12 22
17 22 5 0 9 7 9 15 0 8 4 15 8 15 4 0 16 15 27 33 10 17 29 42 42 54 13 12 23
26 23 32 0 5 3 11 8 13 4 2 23 23 42 48 19 25 43 54 55 65 11 11 33 37 48 58
16 21 46 56 68 78 21 22 39 42 39 45 0 3 6 11 13 18 6 7 35 39 62 71 28 32 56
64 63 71 6 7 12 17 12 23 0 6 4 11 8 11 5 0 35 36 68 81 32 45 64 86 69 93 14
16 34 48 42 66 4 8 10 17 13 20 8 6 54 88 103 185 49 98 89 211 128 365 38
153 46 521 16 720 -10 63 -20 134 -23 157 -3 23 -12 44 -20 47 -11 4 -14 -7
-14 -54z"/>
<path d="M3366 5121 c-3 -5 -22 -12 -41 -15 -19 -4 -35 -11 -35 -16 0 -6 -7
-10 -15 -10 -25 0 -123 -107 -152 -167 -22 -47 -28 -75 -31 -146 -4 -86 0
-105 35 -186 27 -62 98 -132 176 -174 48 -26 61 -29 157 -29 95 -1 111 2 165
27 69 33 150 110 182 175 49 96 47 256 -3 347 -35 62 -118 145 -169 167 -22 9
-48 21 -57 26 -22 12 -205 13 -212 1z"/>
<path d="M1920 4886 c0 -7 7 -19 15 -26 8 -7 15 -19 15 -26 0 -8 4 -14 8 -14
4 0 16 -15 27 -32 10 -18 29 -44 42 -58 13 -14 23 -28 23 -33 0 -4 18 -32 40
-62 22 -30 40 -59 40 -65 0 -5 4 -10 8 -10 4 0 16 -15 27 -32 15 -26 88 -132
132 -194 20 -27 34 -51 39 -66 4 -10 9 -18 13 -18 4 0 17 -18 30 -40 12 -22
28 -45 34 -52 7 -7 35 -47 62 -88 28 -41 53 -76 58 -78 4 -2 7 -8 7 -13 0 -6
18 -34 40 -64 22 -30 40 -59 40 -65 0 -5 4 -10 8 -10 4 0 21 -20 37 -46 16
-25 37 -54 47 -66 10 -12 18 -27 18 -35 0 -7 5 -13 10 -13 6 0 10 -7 10 -15 0
-8 4 -15 9 -15 5 0 12 -8 15 -18 4 -10 14 -27 24 -38 9 -10 39 -53 67 -94 27
-41 53 -76 57 -78 4 -2 8 -8 8 -13 0 -6 18 -34 40 -64 22 -30 40 -58 40 -64 0
-5 3 -11 8 -13 4 -1 23 -27 42 -55 19 -29 38 -53 43 -53 4 0 7 -7 7 -15 0 -8
6 -15 13 -15 12 0 37 64 37 97 0 10 7 31 15 47 8 15 15 41 15 57 0 15 4 30 9
34 5 3 13 20 17 37 3 18 10 39 15 48 4 8 20 42 34 75 15 33 30 67 35 75 5 8
24 44 42 80 32 64 102 183 123 207 25 30 32 40 50 71 11 17 23 32 27 32 4 0 8
4 8 9 0 6 11 22 25 37 14 15 24 32 22 38 -5 14 -58 44 -79 45 -9 1 -18 4 -20
9 -1 4 -19 14 -38 24 -19 9 -86 41 -149 72 -63 31 -120 56 -127 56 -7 0 -14 3
-16 8 -4 9 -133 72 -148 72 -5 0 -10 5 -10 10 0 6 -6 10 -12 10 -7 0 -49 18
-93 40 -44 22 -86 40 -92 40 -7 0 -13 3 -13 8 0 4 -21 16 -48 26 -26 11 -49
22 -52 25 -3 3 -21 13 -40 23 -191 90 -318 151 -330 159 -8 5 -22 12 -30 15
-8 3 -74 35 -147 70 -72 35 -136 64 -141 64 -6 0 -12 3 -14 8 -1 4 -20 15 -40
24 -30 14 -38 15 -38 4z"/>
<path d="M1238 4393 c-21 -24 -28 -468 -19 -1092 l6 -454 27 -20 c17 -13 34
-18 50 -14 l25 7 -14 102 c-18 131 -11 467 12 583 9 44 20 103 25 130 8 45 26
113 42 155 3 8 18 53 33 100 15 47 33 100 41 118 8 17 21 49 30 70 29 69 36
80 50 75 8 -3 14 -18 14 -34 0 -32 14 -102 36 -170 8 -26 14 -53 14 -62 0 -8
7 -28 15 -43 8 -16 15 -37 15 -46 0 -10 4 -18 8 -18 4 0 16 -22 27 -50 11 -27
22 -50 26 -50 4 0 10 -11 13 -25 4 -14 11 -25 16 -25 6 0 10 -5 10 -11 0 -29
208 -249 236 -249 8 0 17 -7 20 -15 4 -8 11 -15 16 -15 5 0 24 -10 41 -22 18
-13 41 -28 52 -34 11 -6 47 -26 80 -44 33 -18 94 -51 135 -72 87 -45 163 -88
170 -97 3 -3 22 -15 43 -26 20 -11 37 -22 37 -26 0 -4 8 -9 18 -13 20 -6 50
-25 70 -44 8 -7 30 -25 50 -40 89 -66 232 -209 308 -307 27 -35 55 -66 62 -69
15 -7 16 37 1 119 -6 33 -14 89 -19 125 -9 72 -27 154 -39 185 -38 93 -47 111
-54 120 -20 25 -117 179 -117 187 0 4 -4 8 -10 8 -5 0 -10 5 -10 10 0 6 -5 16
-11 23 -6 7 -42 57 -80 112 -38 55 -73 105 -79 112 -5 7 -10 15 -10 18 0 3
-23 38 -52 77 -91 129 -138 199 -138 209 0 5 -4 9 -10 9 -5 0 -10 5 -10 10 0
6 -5 16 -10 23 -25 30 -120 166 -120 171 0 4 -18 31 -40 61 -22 30 -40 58 -40
64 0 5 -3 11 -7 13 -11 4 -93 128 -93 139 0 5 -3 9 -7 9 -5 0 -16 14 -25 30
l-17 30 -414 0 c-382 0 -415 -1 -429 -17z"/>
<path d="M4979 4343 c-28 -62 -74 -155 -103 -208 -6 -11 -21 -34 -33 -52 -13
-17 -23 -34 -23 -37 0 -8 -64 -101 -72 -104 -5 -2 -8 -8 -8 -13 0 -6 -11 -22
-25 -37 -14 -15 -25 -30 -25 -34 0 -4 -9 -18 -19 -30 -10 -13 -59 -72 -107
-133 -79 -99 -127 -155 -160 -189 -6 -7 -33 -39 -59 -71 -27 -33 -51 -62 -55
-65 -3 -3 -21 -25 -40 -50 -19 -25 -37 -47 -40 -50 -10 -10 -88 -116 -106
-145 -10 -16 -21 -32 -24 -35 -10 -10 -31 -45 -36 -62 -4 -10 -10 -18 -15 -18
-5 0 -9 -7 -9 -15 0 -8 -4 -15 -9 -15 -5 0 -13 -10 -17 -22 -4 -13 -9 -25 -13
-28 -3 -3 -13 -21 -23 -40 -69 -145 -98 -211 -98 -223 0 -7 -4 -17 -9 -23 -6
-5 -13 -29 -17 -54 -8 -51 -5 -49 56 30 79 102 208 231 310 310 25 19 47 38
48 42 2 5 10 8 17 8 7 0 15 4 17 8 2 4 38 30 81 58 111 69 132 81 224 130 107
56 125 66 141 82 7 6 20 12 28 12 8 0 14 5 14 10 0 6 6 10 13 10 24 0 185 119
252 187 64 64 153 195 189 278 9 22 21 48 26 57 6 10 10 29 10 42 0 14 4 27 9
31 5 3 12 20 16 38 4 17 11 46 16 62 5 17 14 63 20 103 6 39 14 72 19 72 11 0
65 -116 91 -195 7 -22 16 -44 20 -50 4 -5 10 -26 14 -45 4 -19 10 -39 14 -45
28 -46 84 -331 102 -521 12 -129 11 -166 -11 -373 -11 -111 -7 -128 29 -116
54 17 51 -25 51 799 0 726 -1 764 -18 779 -16 15 -54 17 -320 17 l-302 0 -31
-67z"/>
<path d="M5914 3862 c-43 -38 -57 -82 -42 -137 15 -56 53 -79 125 -78 44 1 57
6 79 30 47 50 52 85 21 156 -7 15 -17 27 -23 27 -6 0 -17 7 -24 15 -8 9 -30
15 -59 15 -36 0 -53 -6 -77 -28z"/>
<path d="M6257 3869 c-70 -53 -75 -154 -10 -203 33 -25 125 -26 151 -2 12 10
36 16 70 16 77 0 106 -29 122 -124 7 -41 10 -78 6 -84 -3 -5 -10 -51 -15 -101
-6 -50 -14 -106 -20 -124 -5 -17 -17 -59 -26 -92 -19 -70 -32 -108 -51 -152
-8 -17 -14 -38 -14 -46 0 -9 -4 -19 -10 -22 -5 -3 -10 -15 -10 -25 0 -10 -6
-31 -14 -47 -27 -52 -66 -143 -66 -153 0 -6 -4 -10 -10 -10 -5 0 -10 -9 -10
-19 0 -11 -7 -26 -15 -35 -8 -8 -15 -24 -15 -35 0 -12 -4 -21 -8 -21 -4 0 -15
-15 -23 -32 -32 -70 -83 -163 -91 -166 -4 -2 -8 -9 -8 -16 0 -25 -60 -96 -81
-96 -27 0 -79 -37 -79 -56 0 -8 -3 -14 -7 -14 -5 0 -17 -18 -27 -40 -11 -22
-23 -40 -28 -40 -4 0 -8 -6 -8 -14 0 -8 -3 -16 -7 -18 -5 -1 -25 -28 -45 -58
-21 -31 -47 -65 -58 -77 -11 -12 -20 -25 -20 -28 0 -5 -33 -46 -62 -77 -10
-10 -18 -21 -18 -24 0 -3 -40 -45 -89 -92 -125 -123 -228 -194 -393 -273 -89
-43 -296 -53 -394 -18 -82 28 -137 22 -178 -22 -26 -28 -31 -41 -30 -81 0 -27
6 -54 12 -60 17 -17 15 -68 -2 -68 -8 0 -16 -4 -18 -8 -1 -4 -23 -23 -48 -42
-25 -19 -47 -37 -50 -40 -23 -23 -268 -140 -293 -140 -9 0 -18 -4 -21 -9 -3
-5 -22 -12 -42 -16 -20 -3 -44 -10 -53 -15 -9 -4 -41 -13 -71 -20 -30 -6 -83
-18 -118 -25 -172 -38 -302 -48 -542 -42 -129 4 -284 13 -345 21 -220 29 -261
35 -275 40 -8 3 -42 10 -75 15 -73 12 -148 27 -195 40 -117 32 -163 46 -230
68 -41 13 -82 28 -90 32 -9 5 -30 12 -48 15 -17 4 -34 12 -37 17 -4 5 -16 9
-28 9 -12 0 -31 7 -41 15 -11 8 -28 15 -38 15 -10 0 -18 4 -18 8 0 4 -22 16
-50 26 -27 10 -50 22 -50 27 0 5 -8 9 -19 9 -10 0 -24 7 -31 15 -7 8 -19 15
-26 15 -13 0 -222 125 -234 140 -3 3 -21 16 -40 27 -19 12 -44 30 -55 40 -11
10 -38 31 -60 47 -50 38 -268 256 -315 316 -19 25 -38 50 -43 55 -27 35 -87
127 -87 135 0 4 -4 10 -9 12 -9 3 -63 97 -98 173 -43 90 -49 105 -88 205 -10
25 -21 54 -25 65 -8 21 -35 114 -50 175 -51 209 -69 396 -40 410 8 4 41 20 74
36 67 32 160 121 178 170 7 19 16 34 20 34 4 0 8 8 8 17 0 9 7 46 16 81 14 55
15 74 4 121 -16 76 -50 171 -61 171 -5 0 -9 6 -9 13 -1 22 -104 113 -160 139
-133 62 -250 61 -380 -1 -46 -22 -130 -94 -130 -111 0 -6 -5 -10 -10 -10 -12
0 -63 -105 -80 -166 -7 -22 -10 -67 -7 -100 17 -217 140 -352 373 -410 6 -1
14 -29 17 -61 14 -125 27 -211 42 -278 37 -164 58 -241 68 -251 4 -4 7 -14 7
-23 0 -9 7 -29 15 -45 8 -15 15 -34 15 -42 0 -41 195 -421 222 -432 4 -2 8
-10 8 -18 0 -8 4 -14 9 -14 5 0 13 -9 16 -21 4 -12 14 -29 23 -38 18 -19 25
-28 82 -101 50 -64 223 -234 311 -305 41 -33 76 -63 77 -67 2 -5 8 -8 13 -8 5
0 42 -24 82 -53 64 -46 91 -63 162 -101 11 -6 22 -14 25 -17 3 -3 59 -31 125
-63 66 -32 128 -63 138 -68 39 -20 222 -88 237 -88 8 0 24 -6 35 -14 11 -7 34
-16 50 -19 17 -3 53 -12 80 -21 77 -23 153 -42 235 -59 41 -9 100 -21 130 -27
161 -35 535 -69 745 -69 217 0 496 32 588 68 16 6 39 11 53 11 13 0 32 4 42 9
9 5 42 17 72 26 30 9 66 21 80 26 71 31 98 42 128 55 70 30 107 49 110 57 2 4
10 7 17 7 7 0 15 3 17 8 2 4 28 23 58 42 30 19 65 44 77 57 12 13 24 23 27 23
3 0 24 18 46 40 22 22 44 40 48 40 4 -1 36 -7 72 -15 36 -8 85 -14 110 -15 52
0 206 27 232 41 10 5 25 9 34 9 40 0 268 116 318 162 11 10 28 20 38 24 10 3
18 10 18 15 0 5 5 9 10 9 27 0 239 212 330 330 19 25 45 56 57 69 12 13 30 39
40 58 9 18 21 33 25 33 5 0 8 7 8 15 0 8 3 15 8 15 4 0 16 17 27 38 11 20 23
39 26 42 21 16 53 101 55 142 2 34 12 64 33 98 17 28 31 54 31 59 0 5 4 11 8
13 4 2 24 35 42 73 19 39 37 72 40 75 3 3 13 22 23 43 9 20 25 54 35 75 9 20
20 39 25 40 4 2 7 10 7 17 0 7 6 26 14 42 20 38 46 100 46 107 0 3 9 25 19 49
17 38 28 69 67 192 24 77 43 150 54 210 6 33 16 79 21 102 16 75 11 198 -12
269 -26 79 -85 144 -150 163 -24 7 -54 17 -67 22 -13 5 -32 9 -42 9 -10 0 -23
6 -27 13 -30 47 -118 61 -166 26z m-5567 -137 c109 -53 163 -139 168 -267 3
-64 0 -89 -17 -129 -21 -48 -110 -146 -134 -146 -6 0 -21 -7 -31 -15 -14 -11
-46 -15 -111 -15 -65 0 -97 4 -111 15 -10 8 -26 15 -34 15 -13 0 -51 33 -103
90 -56 62 -71 215 -30 301 30 64 80 114 149 149 53 28 66 30 134 27 51 -2 89
-10 120 -25z"/>
<path d="M530 3640 c-8 -5 -23 -10 -33 -10 -25 0 -86 -58 -108 -104 -26 -53
-24 -96 6 -152 38 -72 91 -104 171 -104 144 0 229 162 152 288 -23 37 -55 61
-108 79 -42 15 -60 16 -80 3z"/>
<path d="M1497 3713 c-9 -27 -17 -61 -17 -76 0 -16 -4 -36 -9 -45 -29 -55 -51
-343 -40 -526 10 -155 28 -298 40 -311 5 -5 9 -24 9 -42 0 -19 7 -50 15 -70 8
-19 15 -45 15 -57 0 -12 4 -26 8 -31 5 -6 21 -46 36 -90 40 -116 71 -183 136
-300 18 -33 38 -69 44 -80 27 -50 121 -185 128 -185 4 0 8 -5 8 -11 0 -14 235
-249 250 -249 5 0 10 -5 10 -10 0 -6 11 -15 25 -20 14 -5 25 -14 25 -20 0 -5
7 -10 15 -10 8 0 15 -4 15 -8 0 -4 15 -16 33 -27 17 -10 34 -21 37 -24 14 -17
312 -171 330 -171 5 0 10 -4 10 -10 0 -5 5 -10 11 -10 7 0 46 -16 88 -36 147
-69 157 -74 169 -74 7 0 12 -4 12 -10 0 -5 5 -10 10 -10 15 0 144 -63 148 -72
2 -5 10 -8 17 -8 16 0 79 -32 83 -42 2 -5 8 -8 14 -8 13 0 192 -110 196 -121
2 -5 13 -9 24 -9 19 0 20 4 13 93 -4 50 -16 155 -27 232 -11 77 -24 172 -29
210 -5 39 -14 80 -19 93 -6 13 -10 36 -10 51 0 16 -7 48 -15 71 -8 23 -15 53
-15 66 0 14 -4 32 -9 42 -13 24 -41 117 -41 136 0 9 -4 16 -10 16 -5 0 -10 10
-10 23 0 13 -7 32 -15 43 -8 10 -15 27 -15 37 0 11 -7 33 -16 50 -9 18 -20 39
-24 47 -21 44 -95 186 -100 190 -3 3 -26 37 -49 75 -24 39 -47 72 -50 75 -3 3
-28 32 -56 64 -59 70 -104 115 -165 165 -25 20 -47 39 -50 43 -4 4 -51 39
-105 78 -55 38 -105 73 -111 77 -5 4 -19 13 -30 19 -99 56 -143 80 -169 93
-16 8 -32 17 -35 20 -3 4 -25 15 -50 26 -25 11 -47 22 -50 25 -5 5 -35 21
-124 69 -27 14 -57 33 -66 41 -8 8 -32 26 -53 40 -20 14 -37 28 -37 33 0 4 -5
7 -10 7 -21 0 -180 175 -180 199 0 6 -4 11 -8 11 -13 0 -122 223 -122 249 0
26 -17 7 -33 -36z m315 -1017 c8 -7 34 -37 59 -67 107 -129 299 -325 366 -375
21 -16 47 -39 59 -51 12 -13 24 -23 28 -23 4 0 17 -9 29 -21 12 -11 51 -41 87
-67 36 -25 67 -49 70 -52 3 -4 32 -26 65 -51 61 -45 160 -123 181 -143 12 -11
32 -28 99 -84 68 -58 168 -156 210 -208 22 -27 47 -56 55 -64 63 -63 200 -287
200 -326 0 -48 -79 16 -341 278 -134 134 -262 257 -284 273 -21 17 -56 47 -77
68 -21 20 -42 37 -47 37 -5 0 -11 3 -13 8 -1 4 -23 23 -48 42 -25 19 -47 37
-50 40 -3 3 -25 21 -50 40 -25 19 -60 49 -77 67 -18 18 -36 33 -39 33 -22 0
-324 337 -347 388 -6 12 -14 22 -19 22 -4 0 -8 7 -8 15 0 8 -4 15 -8 15 -5 0
-17 18 -28 40 -10 22 -22 40 -25 40 -4 0 -10 11 -13 25 -4 14 -11 25 -16 25
-6 0 -10 8 -10 19 0 10 -7 24 -15 31 -8 7 -15 19 -15 26 0 18 5 18 22 0z"/>
<path d="M5353 3740 c-7 -11 -13 -25 -13 -32 0 -18 -102 -221 -120 -238 -3 -3
-21 -25 -40 -50 -40 -51 -85 -97 -150 -149 -25 -20 -47 -39 -50 -42 -3 -3 -12
-9 -20 -12 -8 -4 -28 -16 -45 -27 -16 -11 -37 -23 -45 -27 -8 -3 -17 -9 -20
-12 -6 -7 -44 -28 -155 -85 -44 -22 -81 -44 -83 -48 -2 -5 -10 -8 -17 -8 -8 0
-20 -6 -27 -12 -8 -7 -23 -18 -33 -24 -11 -6 -41 -23 -67 -37 -26 -14 -80 -51
-122 -81 -41 -31 -78 -56 -81 -56 -11 0 -289 -278 -300 -299 -6 -11 -33 -54
-62 -96 -28 -42 -79 -133 -113 -203 -34 -70 -66 -135 -71 -144 -5 -10 -9 -26
-9 -36 0 -10 -7 -27 -15 -38 -8 -10 -15 -30 -15 -44 0 -14 -7 -36 -15 -50 -8
-14 -14 -37 -15 -52 0 -15 -4 -29 -9 -32 -5 -3 -11 -18 -14 -33 -3 -16 -13
-62 -22 -103 -9 -41 -20 -102 -26 -135 -5 -33 -12 -67 -15 -75 -4 -8 -10 -49
-15 -90 -23 -216 -30 -281 -39 -344 -7 -43 -7 -73 -1 -79 10 -10 71 21 71 35
0 4 5 8 11 8 6 0 25 10 42 23 51 35 60 40 312 165 293 146 412 202 424 202 5
0 11 3 13 8 2 4 35 23 73 42 39 19 72 38 73 43 2 4 8 7 13 7 12 0 113 62 117
72 2 4 10 8 17 8 7 0 15 3 17 8 2 4 23 23 48 42 74 58 90 72 163 145 38 39 90
97 115 130 26 33 50 62 54 63 4 2 8 10 8 17 0 7 3 15 8 17 22 9 172 279 172
310 0 10 4 18 8 18 14 0 108 263 127 355 4 17 13 62 21 100 8 39 22 154 31
257 15 172 15 197 0 340 -20 183 -35 280 -48 293 -5 5 -9 23 -9 40 0 17 -6 39
-12 48 -12 16 -14 16 -25 -3z m-253 -1037 c0 -15 -34 -83 -42 -83 -4 0 -8 -7
-8 -16 0 -17 -108 -186 -122 -192 -4 -2 -8 -9 -8 -15 0 -7 -11 -24 -25 -39
-14 -15 -25 -29 -25 -32 0 -7 -107 -124 -190 -206 -91 -91 -160 -154 -220
-200 -25 -19 -50 -39 -56 -45 -21 -19 -59 -50 -89 -73 -78 -59 -255 -231 -502
-483 -97 -100 -141 -139 -170 -150 -34 -13 -43 -11 -43 6 0 14 30 85 40 95 10
10 31 45 36 63 4 9 10 17 15 17 5 0 9 5 9 11 0 11 73 110 125 168 48 55 250
256 272 272 19 14 105 84 127 104 6 6 31 26 56 45 25 19 47 38 48 42 2 5 10 8
17 8 7 0 15 4 17 8 2 5 39 35 83 68 44 32 89 66 100 76 11 9 30 25 41 35 108
92 151 131 234 214 53 53 108 112 123 132 15 19 42 51 61 71 18 20 44 52 57
71 22 32 39 44 39 28z"/>
</g>
</svg>
